<?xml version="1.0" encoding="utf-8"?>
<svg version="1.1" xmlns:xlink="http://www.w3.org/1999/xlink" width="12px" height="12px" viewBox="1285 889.5  12 12" xmlns="http://www.w3.org/2000/svg">
  <path d="M 1291 889.5  C 1294.36 889.5  1297 892.14  1297 895.5  C 1297 898.86  1294.36 901.5  1291 901.5  C 1287.64 901.5  1285 898.86  1285 895.5  C 1285 892.14  1287.64 889.5  1291 889.5  Z " fill-rule="nonzero" fill="#ffffff" stroke="none" />
  <path d="M 1291 890  C 1294.08 890  1296.5 892.42  1296.5 895.5  C 1296.5 898.58  1294.08 901  1291 901  C 1287.92 901  1285.5 898.58  1285.5 895.5  C 1285.5 892.42  1287.92 890  1291 890  Z " stroke-width="1" stroke="#797979" fill="none" />
  <path d="M 1291 898.5  C 1289.32 898.5  1288 897.18  1288 895.5  C 1288 893.82  1289.32 892.5  1291 892.5  C 1292.68 892.5  1294 893.82  1294 895.5  C 1294 897.18  1292.68 898.5  1291 898.5  " fill-rule="nonzero" fill="#797979" stroke="none" />
</svg>