<?xml version="1.0" encoding="utf-8"?>
<svg version="1.1" xmlns:xlink="http://www.w3.org/1999/xlink" width="12px" height="12px" viewBox="2041 872.5  12 12" xmlns="http://www.w3.org/2000/svg">
  <path d="M 2047 872.5  C 2050.36 872.5  2053 875.14  2053 878.5  C 2053 881.86  2050.36 884.5  2047 884.5  C 2043.64 884.5  2041 881.86  2041 878.5  C 2041 875.14  2043.64 872.5  2047 872.5  Z " fill-rule="nonzero" fill="#f0f0f0" stroke="none" />
  <path d="M 2047 873  C 2050.08 873  2052.5 875.42  2052.5 878.5  C 2052.5 881.58  2050.08 884  2047 884  C 2043.92 884  2041.5 881.58  2041.5 878.5  C 2041.5 875.42  2043.92 873  2047 873  Z " stroke-width="1" stroke="#797979" fill="none" />
  <path d="M 2047 881.5  C 2045.32 881.5  2044 880.18  2044 878.5  C 2044 876.82  2045.32 875.5  2047 875.5  C 2048.68 875.5  2050 876.82  2050 878.5  C 2050 880.18  2048.68 881.5  2047 881.5  " fill-rule="nonzero" fill="#797979" stroke="none" />
</svg>