<svg t="1611413485146" class="icon" viewBox="0 0 1024 1024" version="1.1" xmlns="http://www.w3.org/2000/svg" p-id="1127" width="48" height="48"><path d="M465.92 995.84c-2.56 0-5.12-0.853333-6.826667-2.56l-52.906666-50.346667-72.533334 0.853334c-4.266667 0-8.533333-2.56-9.386666-6.826667l-25.6-67.413333-64.853334-31.573334c-3.413333-1.706667-5.973333-5.973333-5.973333-10.24l5.12-72.533333-45.226667-56.32c-2.56-3.413333-3.413333-7.68-0.853333-11.946667l36.693333-62.293333-17.066666-69.973333c-0.853333-4.266667 0.853333-8.533333 4.266666-11.093334l58.88-40.106666 16.213334-70.826667c0.853333-4.266667 4.266667-7.68 8.533333-7.68l54.613333-7.68L200.533333 93.866667c-1.706667-3.413333-0.853333-6.826667 0.853334-9.386667s5.12-5.12 8.533333-5.12h222.72c4.266667 0 7.68 2.56 9.386667 5.973333l70.826666 150.186667L584.533333 85.333333c1.706667-3.413333 5.12-5.973333 9.386667-5.973333h222.72c3.413333 0 6.826667 1.706667 8.533333 5.12s2.56 6.826667 0.853334 9.386667L688.64 395.093333h5.12c4.266667 0 8.533333 2.56 9.386667 6.826667l25.6 67.413333 64.853333 31.573334c3.413333 1.706667 5.973333 5.973333 5.973333 10.24l-5.12 72.533333 45.226667 56.32c2.56 3.413333 3.413333 7.68 0.853333 11.946667l-36.693333 62.293333 16.213333 69.973333c0.853333 4.266667-0.853333 8.533333-4.266666 11.093334l-58.88 40.106666-16.213334 70.826667c-0.853333 4.266667-4.266667 7.68-8.533333 7.68l-72.533333 9.386667-44.373334 57.173333c-1.706667 2.56-5.12 4.266667-8.533333 4.266667-0.853333 0-1.706667 0-3.413333-0.853334l-69.973334-22.186666-64.853333 31.573333c0 1.706667-1.706667 2.56-2.56 2.56z m-56.32-73.386667c2.56 0 5.12 0.853333 6.826667 2.56l50.346666 47.786667 62.293334-30.72c1.706667-0.853333 2.56-0.853333 4.266666-0.853333 0.853333 0 1.706667 0 3.413334 0.853333l67.413333 21.333333 42.666667-55.466666c1.706667-2.56 4.266667-3.413333 6.826666-4.266667l69.12-9.386667 15.36-68.266666c0.853333-2.56 1.706667-5.12 4.266667-5.973334l56.32-38.4-15.36-67.413333c-0.853333-2.56 0-5.12 0.853333-7.68l34.986667-59.733333-42.666667-53.76c-1.706667-1.706667-2.56-4.266667-2.56-6.826667l5.12-69.973333-62.293333-30.72c-2.56-0.853333-4.266667-3.413333-5.12-5.12l-24.746667-64.853334-69.12 0.853334c-2.56 0-5.12-0.853333-6.826666-2.56l-50.346667-47.786667-62.293333 30.72c-1.706667 0.853333-2.56 0.853333-4.266667 0.853333-0.853333 0-1.706667 0-3.413333-0.853333l-68.266667-21.333333-42.666667 55.466666c-1.706667 2.56-4.266667 3.413333-6.826666 4.266667l-69.12 8.533333-15.36 68.266667c-0.853333 2.56-1.706667 5.12-4.266667 5.973333l-56.32 38.4 15.36 67.413334c0.853333 2.56 0 5.12-0.853333 7.68l-34.986667 59.733333 43.52 53.76c1.706667 1.706667 2.56 4.266667 2.56 6.826667l-5.12 69.973333 62.293333 30.72c2.56 0.853333 4.266667 3.413333 5.12 5.12l24.746667 64.853333H409.6z m-40.96-510.293333l41.813333-54.613333c1.706667-2.56 5.12-4.266667 8.533334-4.266667 0.853333 0 1.706667 0 3.413333 0.853333l58.026667 18.773334-128.853334-273.066667H226.133333l142.506667 312.32z m252.586667-16.213333l44.373333-0.853334 134.826667-295.253333h-52.906667L614.4 389.973333l6.826667 5.973334z m-56.32-52.906667c1.706667 0.853333 2.56 0.853333 3.413333 2.56l30.72 29.866667L725.333333 99.84H600.746667l-75.946667 159.573333 40.106667 83.626667z m-62.293334 27.306667l42.666667-21.333334L426.666667 99.84h-52.906667l128.853333 270.506667z" p-id="1128" fill="#8a8a8a"></path><path d="M513.706667 896c-124.586667 0-226.986667-101.546667-226.986667-226.986667s101.546667-226.986667 226.986667-226.986666 226.986667 101.546667 226.986666 226.986666-102.4 226.986667-226.986666 226.986667z m0-432.64C400.213333 463.36 307.2 555.52 307.2 669.013333s92.16 206.506667 206.506667 206.506667 206.506667-92.16 206.506666-206.506667-93.013333-205.653333-206.506666-205.653333z" p-id="1129" fill="#8a8a8a"></path><path d="M513.706667 819.2c-1.706667 0-3.413333 0-4.266667-0.853333l-2.56-0.853334c-100.693333-38.4-112.64-91.306667-112.64-127.146666V563.2c0-5.973333 4.266667-10.24 10.24-10.24h17.066667c52.906667 0 75.946667-21.333333 78.506666-23.893333 0 0 0.853333-0.853333 0.853334-1.706667l6.826666-6.826667c1.706667-1.706667 4.266667-3.413333 6.826667-3.413333 2.56 0 5.12 0.853333 6.826667 3.413333l6.826666 6.826667s25.6 25.6 81.066667 25.6h15.36c5.973333 0 10.24 4.266667 10.24 10.24v125.44c0 35.84-11.946667 88.746667-112.64 127.146667l-4.266667 2.56c-1.706667 0.853333-2.56 0.853333-4.266666 0.853333zM414.72 690.346667c0 29.866667 10.24 74.24 98.133333 107.52h0.853334C604.16 762.88 614.4 718.506667 614.4 688.64V573.44h-5.12c-58.88 0-88.746667-24.746667-94.72-30.72l-1.706667 1.706667c-5.12 5.12-33.28 29.013333-91.306666 29.013333h-7.68v116.906667z" p-id="1130" fill="#8a8a8a"></path><path d="M504.32 713.386667c-2.56 0-5.12-0.853333-6.826667-2.56l-41.813333-40.106667c-1.706667-1.706667-3.413333-4.266667-3.413333-6.826667 0-2.56 0.853333-5.12 2.56-7.68 1.706667-1.706667 4.266667-3.413333 7.68-3.413333 2.56 0 5.12 0.853333 6.826666 2.56l34.133334 33.28 52.053333-52.906667c1.706667-1.706667 4.266667-3.413333 6.826667-3.413333s5.12 0.853333 6.826666 3.413333c4.266667 4.266667 4.266667 10.24 0 14.506667l-59.733333 59.733333c0 2.56-2.56 3.413333-5.12 3.413334z" p-id="1131" fill="#8a8a8a"></path></svg>