<?xml version="1.0" encoding="utf-8"?>
<svg version="1.1" xmlns:xlink="http://www.w3.org/1999/xlink" width="18px" height="18px" xmlns="http://www.w3.org/2000/svg">
  <g transform="matrix(1 0 0 1 -724 -866 )">
    <path d="M 733 866  C 738.04 866  742 869.96  742 875  C 742 880.04  738.04 884  733 884  C 727.96 884  724 880.04  724 875  C 724 869.96  727.96 866  733 866  Z " fill-rule="nonzero" fill="#ffffff" stroke="none" />
    <path d="M 733 866.5  C 737.76 866.5  741.5 870.24  741.5 875  C 741.5 879.76  737.76 883.5  733 883.5  C 728.24 883.5  724.5 879.76  724.5 875  C 724.5 870.24  728.24 866.5  733 866.5  Z " stroke-width="1" stroke="#797979" fill="none" />
  </g>
</svg>