<?xml version="1.0" encoding="utf-8"?>
<svg version="1.1" xmlns:xlink="http://www.w3.org/1999/xlink" width="12px" height="12px" viewBox="1292 165.5  12 12" xmlns="http://www.w3.org/2000/svg">
  <path d="M 1298 165.5  C 1301.36 165.5  1304 168.14  1304 171.5  C 1304 174.86  1301.36 177.5  1298 177.5  C 1294.64 177.5  1292 174.86  1292 171.5  C 1292 168.14  1294.64 165.5  1298 165.5  Z " fill-rule="nonzero" fill="#ffffff" stroke="none" />
  <path d="M 1298 166  C 1301.08 166  1303.5 168.42  1303.5 171.5  C 1303.5 174.58  1301.08 177  1298 177  C 1294.92 177  1292.5 174.58  1292.5 171.5  C 1292.5 168.42  1294.92 166  1298 166  Z " stroke-width="1" stroke="#797979" fill="none" />
  <path d="M 1298 174.5  C 1296.32 174.5  1295 173.18  1295 171.5  C 1295 169.82  1296.32 168.5  1298 168.5  C 1299.68 168.5  1301 169.82  1301 171.5  C 1301 173.18  1299.68 174.5  1298 174.5  " fill-rule="nonzero" fill="#797979" stroke="none" />
</svg>