<?xml version="1.0" encoding="utf-8"?>
<svg version="1.1" xmlns:xlink="http://www.w3.org/1999/xlink" width="12px" height="12px" viewBox="1292 229.5  12 12" xmlns="http://www.w3.org/2000/svg">
  <path d="M 1298 229.5  C 1301.36 229.5  1304 232.14  1304 235.5  C 1304 238.86  1301.36 241.5  1298 241.5  C 1294.64 241.5  1292 238.86  1292 235.5  C 1292 232.14  1294.64 229.5  1298 229.5  Z " fill-rule="nonzero" fill="#f0f0f0" stroke="none" />
  <path d="M 1298 230  C 1301.08 230  1303.5 232.42  1303.5 235.5  C 1303.5 238.58  1301.08 241  1298 241  C 1294.92 241  1292.5 238.58  1292.5 235.5  C 1292.5 232.42  1294.92 230  1298 230  Z " stroke-width="1" stroke="#797979" fill="none" />
  <path d="M 1298 238.5  C 1296.32 238.5  1295 237.18  1295 235.5  C 1295 233.82  1296.32 232.5  1298 232.5  C 1299.68 232.5  1301 233.82  1301 235.5  C 1301 237.18  1299.68 238.5  1298 238.5  " fill-rule="nonzero" fill="#797979" stroke="none" />
</svg>