<?xml version="1.0" encoding="utf-8"?>
<svg version="1.1" xmlns:xlink="http://www.w3.org/1999/xlink" width="12px" height="12px" viewBox="1396 165.5  12 12" xmlns="http://www.w3.org/2000/svg">
  <path d="M 1402 165.5  C 1405.36 165.5  1408 168.14  1408 171.5  C 1408 174.86  1405.36 177.5  1402 177.5  C 1398.64 177.5  1396 174.86  1396 171.5  C 1396 168.14  1398.64 165.5  1402 165.5  Z " fill-rule="nonzero" fill="#ffffff" stroke="none" />
  <path d="M 1402 166  C 1405.08 166  1407.5 168.42  1407.5 171.5  C 1407.5 174.58  1405.08 177  1402 177  C 1398.92 177  1396.5 174.58  1396.5 171.5  C 1396.5 168.42  1398.92 166  1402 166  Z " stroke-width="1" stroke="#797979" fill="none" />
  <path d="M 1402 174.5  C 1400.32 174.5  1399 173.18  1399 171.5  C 1399 169.82  1400.32 168.5  1402 168.5  C 1403.68 168.5  1405 169.82  1405 171.5  C 1405 173.18  1403.68 174.5  1402 174.5  " fill-rule="nonzero" fill="#797979" stroke="none" />
</svg>