<?xml version="1.0" encoding="utf-8"?>
<svg version="1.1" xmlns:xlink="http://www.w3.org/1999/xlink" width="12px" height="12px" viewBox="1894 165.5  12 12" xmlns="http://www.w3.org/2000/svg">
  <path d="M 1900 165.5  C 1903.36 165.5  1906 168.14  1906 171.5  C 1906 174.86  1903.36 177.5  1900 177.5  C 1896.64 177.5  1894 174.86  1894 171.5  C 1894 168.14  1896.64 165.5  1900 165.5  Z " fill-rule="nonzero" fill="#ffffff" stroke="none" />
  <path d="M 1900 166  C 1903.08 166  1905.5 168.42  1905.5 171.5  C 1905.5 174.58  1903.08 177  1900 177  C 1896.92 177  1894.5 174.58  1894.5 171.5  C 1894.5 168.42  1896.92 166  1900 166  Z " stroke-width="1" stroke="#797979" fill="none" />
  <path d="M 1900 174.5  C 1898.32 174.5  1897 173.18  1897 171.5  C 1897 169.82  1898.32 168.5  1900 168.5  C 1901.68 168.5  1903 169.82  1903 171.5  C 1903 173.18  1901.68 174.5  1900 174.5  " fill-rule="nonzero" fill="#797979" stroke="none" />
</svg>