<?xml version="1.0" encoding="utf-8"?>
<svg version="1.1" xmlns:xlink="http://www.w3.org/1999/xlink" width="12px" height="12px" viewBox="1396 229.5  12 12" xmlns="http://www.w3.org/2000/svg">
  <path d="M 1402 229.5  C 1405.36 229.5  1408 232.14  1408 235.5  C 1408 238.86  1405.36 241.5  1402 241.5  C 1398.64 241.5  1396 238.86  1396 235.5  C 1396 232.14  1398.64 229.5  1402 229.5  Z " fill-rule="nonzero" fill="#f0f0f0" stroke="none" />
  <path d="M 1402 230  C 1405.08 230  1407.5 232.42  1407.5 235.5  C 1407.5 238.58  1405.08 241  1402 241  C 1398.92 241  1396.5 238.58  1396.5 235.5  C 1396.5 232.42  1398.92 230  1402 230  Z " stroke-width="1" stroke="#797979" fill="none" />
  <path d="M 1402 238.5  C 1400.32 238.5  1399 237.18  1399 235.5  C 1399 233.82  1400.32 232.5  1402 232.5  C 1403.68 232.5  1405 233.82  1405 235.5  C 1405 237.18  1403.68 238.5  1402 238.5  " fill-rule="nonzero" fill="#797979" stroke="none" />
</svg>