<?xml version="1.0" encoding="utf-8"?>
<svg version="1.1" xmlns:xlink="http://www.w3.org/1999/xlink" width="12px" height="12px" viewBox="2480 165.5  12 12" xmlns="http://www.w3.org/2000/svg">
  <path d="M 2486 165.5  C 2489.36 165.5  2492 168.14  2492 171.5  C 2492 174.86  2489.36 177.5  2486 177.5  C 2482.64 177.5  2480 174.86  2480 171.5  C 2480 168.14  2482.64 165.5  2486 165.5  Z " fill-rule="nonzero" fill="#ffffff" stroke="none" />
  <path d="M 2486 166  C 2489.08 166  2491.5 168.42  2491.5 171.5  C 2491.5 174.58  2489.08 177  2486 177  C 2482.92 177  2480.5 174.58  2480.5 171.5  C 2480.5 168.42  2482.92 166  2486 166  Z " stroke-width="1" stroke="#797979" fill="none" />
  <path d="M 2486 174.5  C 2484.32 174.5  2483 173.18  2483 171.5  C 2483 169.82  2484.32 168.5  2486 168.5  C 2487.68 168.5  2489 169.82  2489 171.5  C 2489 173.18  2487.68 174.5  2486 174.5  " fill-rule="nonzero" fill="#797979" stroke="none" />
</svg>