<?xml version="1.0" encoding="utf-8"?>
<svg version="1.1" xmlns:xlink="http://www.w3.org/1999/xlink" width="12px" height="12px" viewBox="2584 165.5  12 12" xmlns="http://www.w3.org/2000/svg">
  <path d="M 2590 165.5  C 2593.36 165.5  2596 168.14  2596 171.5  C 2596 174.86  2593.36 177.5  2590 177.5  C 2586.64 177.5  2584 174.86  2584 171.5  C 2584 168.14  2586.64 165.5  2590 165.5  Z " fill-rule="nonzero" fill="#f0f0f0" stroke="none" />
  <path d="M 2590 166  C 2593.08 166  2595.5 168.42  2595.5 171.5  C 2595.5 174.58  2593.08 177  2590 177  C 2586.92 177  2584.5 174.58  2584.5 171.5  C 2584.5 168.42  2586.92 166  2590 166  Z " stroke-width="1" stroke="#797979" fill="none" />
  <path d="M 2590 174.5  C 2588.32 174.5  2587 173.18  2587 171.5  C 2587 169.82  2588.32 168.5  2590 168.5  C 2591.68 168.5  2593 169.82  2593 171.5  C 2593 173.18  2591.68 174.5  2590 174.5  " fill-rule="nonzero" fill="#797979" stroke="none" />
</svg>