<?xml version="1.0" encoding="utf-8"?>
<svg version="1.1" xmlns:xlink="http://www.w3.org/1999/xlink" width="12px" height="12px" viewBox="3655 229.5  12 12" xmlns="http://www.w3.org/2000/svg">
  <path d="M 3661 229.5  C 3664.36 229.5  3667 232.14  3667 235.5  C 3667 238.86  3664.36 241.5  3661 241.5  C 3657.64 241.5  3655 238.86  3655 235.5  C 3655 232.14  3657.64 229.5  3661 229.5  Z " fill-rule="nonzero" fill="#f0f0f0" stroke="none" />
  <path d="M 3661 230  C 3664.08 230  3666.5 232.42  3666.5 235.5  C 3666.5 238.58  3664.08 241  3661 241  C 3657.92 241  3655.5 238.58  3655.5 235.5  C 3655.5 232.42  3657.92 230  3661 230  Z " stroke-width="1" stroke="#797979" fill="none" />
  <path d="M 3661 238.5  C 3659.32 238.5  3658 237.18  3658 235.5  C 3658 233.82  3659.32 232.5  3661 232.5  C 3662.68 232.5  3664 233.82  3664 235.5  C 3664 237.18  3662.68 238.5  3661 238.5  " fill-rule="nonzero" fill="#797979" stroke="none" />
</svg>