<?xml version="1.0" encoding="utf-8"?>
<svg version="1.1" xmlns:xlink="http://www.w3.org/1999/xlink" width="12px" height="12px" viewBox="4242 229.5  12 12" xmlns="http://www.w3.org/2000/svg">
  <path d="M 4248 229.5  C 4251.36 229.5  4254 232.14  4254 235.5  C 4254 238.86  4251.36 241.5  4248 241.5  C 4244.64 241.5  4242 238.86  4242 235.5  C 4242 232.14  4244.64 229.5  4248 229.5  Z " fill-rule="nonzero" fill="#ffffff" stroke="none" />
  <path d="M 4248 230  C 4251.08 230  4253.5 232.42  4253.5 235.5  C 4253.5 238.58  4251.08 241  4248 241  C 4244.92 241  4242.5 238.58  4242.5 235.5  C 4242.5 232.42  4244.92 230  4248 230  Z " stroke-width="1" stroke="#797979" fill="none" />
  <path d="M 4248 238.5  C 4246.32 238.5  4245 237.18  4245 235.5  C 4245 233.82  4246.32 232.5  4248 232.5  C 4249.68 232.5  4251 233.82  4251 235.5  C 4251 237.18  4249.68 238.5  4248 238.5  " fill-rule="nonzero" fill="#797979" stroke="none" />
</svg>