<?xml version="1.0" encoding="utf-8"?>
<svg version="1.1" xmlns:xlink="http://www.w3.org/1999/xlink" width="12px" height="12px" viewBox="4138 229.5  12 12" xmlns="http://www.w3.org/2000/svg">
  <path d="M 4144 229.5  C 4147.36 229.5  4150 232.14  4150 235.5  C 4150 238.86  4147.36 241.5  4144 241.5  C 4140.64 241.5  4138 238.86  4138 235.5  C 4138 232.14  4140.64 229.5  4144 229.5  Z " fill-rule="nonzero" fill="#f0f0f0" stroke="none" />
  <path d="M 4144 230  C 4147.08 230  4149.5 232.42  4149.5 235.5  C 4149.5 238.58  4147.08 241  4144 241  C 4140.92 241  4138.5 238.58  4138.5 235.5  C 4138.5 232.42  4140.92 230  4144 230  Z " stroke-width="1" stroke="#797979" fill="none" />
  <path d="M 4144 238.5  C 4142.32 238.5  4141 237.18  4141 235.5  C 4141 233.82  4142.32 232.5  4144 232.5  C 4145.68 232.5  4147 233.82  4147 235.5  C 4147 237.18  4145.68 238.5  4144 238.5  " fill-rule="nonzero" fill="#797979" stroke="none" />
</svg>