<?xml version="1.0" encoding="utf-8"?>
<svg version="1.1" xmlns:xlink="http://www.w3.org/1999/xlink" width="12px" height="12px" viewBox="3182 165.5  12 12" xmlns="http://www.w3.org/2000/svg">
  <path d="M 3188 165.5  C 3191.36 165.5  3194 168.14  3194 171.5  C 3194 174.86  3191.36 177.5  3188 177.5  C 3184.64 177.5  3182 174.86  3182 171.5  C 3182 168.14  3184.64 165.5  3188 165.5  Z " fill-rule="nonzero" fill="#f0f0f0" stroke="none" />
  <path d="M 3188 166  C 3191.08 166  3193.5 168.42  3193.5 171.5  C 3193.5 174.58  3191.08 177  3188 177  C 3184.92 177  3182.5 174.58  3182.5 171.5  C 3182.5 168.42  3184.92 166  3188 166  Z " stroke-width="1" stroke="#797979" fill="none" />
  <path d="M 3188 174.5  C 3186.32 174.5  3185 173.18  3185 171.5  C 3185 169.82  3186.32 168.5  3188 168.5  C 3189.68 168.5  3191 169.82  3191 171.5  C 3191 173.18  3189.68 174.5  3188 174.5  " fill-rule="nonzero" fill="#797979" stroke="none" />
</svg>