<?xml version="1.0" encoding="utf-8"?>
<svg version="1.1" xmlns:xlink="http://www.w3.org/1999/xlink" width="12px" height="12px" viewBox="3078 165.5  12 12" xmlns="http://www.w3.org/2000/svg">
  <path d="M 3084 165.5  C 3087.36 165.5  3090 168.14  3090 171.5  C 3090 174.86  3087.36 177.5  3084 177.5  C 3080.64 177.5  3078 174.86  3078 171.5  C 3078 168.14  3080.64 165.5  3084 165.5  Z " fill-rule="nonzero" fill="#f0f0f0" stroke="none" />
  <path d="M 3084 166  C 3087.08 166  3089.5 168.42  3089.5 171.5  C 3089.5 174.58  3087.08 177  3084 177  C 3080.92 177  3078.5 174.58  3078.5 171.5  C 3078.5 168.42  3080.92 166  3084 166  Z " stroke-width="1" stroke="#797979" fill="none" />
  <path d="M 3084 174.5  C 3082.32 174.5  3081 173.18  3081 171.5  C 3081 169.82  3082.32 168.5  3084 168.5  C 3085.68 168.5  3087 169.82  3087 171.5  C 3087 173.18  3085.68 174.5  3084 174.5  " fill-rule="nonzero" fill="#797979" stroke="none" />
</svg>