<?xml version="1.0" encoding="utf-8"?>
<svg version="1.1" xmlns:xlink="http://www.w3.org/1999/xlink" width="12px" height="12px" viewBox="1797 238.5  12 12" xmlns="http://www.w3.org/2000/svg">
  <path d="M 1803 238.5  C 1806.36 238.5  1809 241.14  1809 244.5  C 1809 247.86  1806.36 250.5  1803 250.5  C 1799.64 250.5  1797 247.86  1797 244.5  C 1797 241.14  1799.64 238.5  1803 238.5  Z " fill-rule="nonzero" fill="#ffffff" stroke="none" />
  <path d="M 1803 239  C 1806.08 239  1808.5 241.42  1808.5 244.5  C 1808.5 247.58  1806.08 250  1803 250  C 1799.92 250  1797.5 247.58  1797.5 244.5  C 1797.5 241.42  1799.92 239  1803 239  Z " stroke-width="1" stroke="#797979" fill="none" />
  <path d="M 1803 247.5  C 1801.32 247.5  1800 246.18  1800 244.5  C 1800 242.82  1801.32 241.5  1803 241.5  C 1804.68 241.5  1806 242.82  1806 244.5  C 1806 246.18  1804.68 247.5  1803 247.5  " fill-rule="nonzero" fill="#797979" stroke="none" />
</svg>