<?xml version="1.0" encoding="utf-8"?>
<svg version="1.1" xmlns:xlink="http://www.w3.org/1999/xlink" width="12px" height="12px" viewBox="2280 238.5  12 12" xmlns="http://www.w3.org/2000/svg">
  <path d="M 2286 238.5  C 2289.36 238.5  2292 241.14  2292 244.5  C 2292 247.86  2289.36 250.5  2286 250.5  C 2282.64 250.5  2280 247.86  2280 244.5  C 2280 241.14  2282.64 238.5  2286 238.5  Z " fill-rule="nonzero" fill="#ffffff" stroke="none" />
  <path d="M 2286 239  C 2289.08 239  2291.5 241.42  2291.5 244.5  C 2291.5 247.58  2289.08 250  2286 250  C 2282.92 250  2280.5 247.58  2280.5 244.5  C 2280.5 241.42  2282.92 239  2286 239  Z " stroke-width="1" stroke="#797979" fill="none" />
  <path d="M 2286 247.5  C 2284.32 247.5  2283 246.18  2283 244.5  C 2283 242.82  2284.32 241.5  2286 241.5  C 2287.68 241.5  2289 242.82  2289 244.5  C 2289 246.18  2287.68 247.5  2286 247.5  " fill-rule="nonzero" fill="#797979" stroke="none" />
</svg>