<?xml version="1.0" encoding="utf-8"?>
<svg version="1.1" xmlns:xlink="http://www.w3.org/1999/xlink" width="12px" height="12px" viewBox="2384 238.5  12 12" xmlns="http://www.w3.org/2000/svg">
  <path d="M 2390 238.5  C 2393.36 238.5  2396 241.14  2396 244.5  C 2396 247.86  2393.36 250.5  2390 250.5  C 2386.64 250.5  2384 247.86  2384 244.5  C 2384 241.14  2386.64 238.5  2390 238.5  Z " fill-rule="nonzero" fill="#ffffff" stroke="none" />
  <path d="M 2390 239  C 2393.08 239  2395.5 241.42  2395.5 244.5  C 2395.5 247.58  2393.08 250  2390 250  C 2386.92 250  2384.5 247.58  2384.5 244.5  C 2384.5 241.42  2386.92 239  2390 239  Z " stroke-width="1" stroke="#797979" fill="none" />
  <path d="M 2390 247.5  C 2388.32 247.5  2387 246.18  2387 244.5  C 2387 242.82  2388.32 241.5  2390 241.5  C 2391.68 241.5  2393 242.82  2393 244.5  C 2393 246.18  2391.68 247.5  2390 247.5  " fill-rule="nonzero" fill="#797979" stroke="none" />
</svg>