<?xml version="1.0" encoding="utf-8"?>
<svg version="1.1" xmlns:xlink="http://www.w3.org/1999/xlink" width="714px" height="439px" xmlns="http://www.w3.org/2000/svg">
  <g>
    <path d="M 0 0  L 714 0  L 714 439  L 0 439  L 0 0  " fill-rule="nonzero" fill="#cccccc" stroke="none" />
    <path d="M 31 31  L 683 31  L 683 408  L 31 408  L 31 31  " fill-rule="nonzero" fill="#ffffff" stroke="none" />
    <path d="M 404.205 131.7  C 385.767 131.7  371.28 117.213  371.28 98.775  C 371.28 80.337  385.767 65.85  404.205 65.85  C 422.643 65.85  437.13 80.337  437.13 98.775  C 437.13 117.213  422.643 131.7  404.205 131.7  " fill-rule="nonzero" fill="#cccccc" stroke="none" />
    <path d="M 42 397  L 42 201.75  L 199.5 113  L 420 266.03781512605  L 546 166.25  L 672 266.03781512605  L 672 397  L 42 397  " fill-rule="nonzero" fill="#169bd5" stroke="none" />
  </g>
</svg>