<?xml version="1.0" encoding="utf-8"?>
<svg version="1.1" xmlns:xlink="http://www.w3.org/1999/xlink" width="55px" height="55px" xmlns="http://www.w3.org/2000/svg">
  <g transform="matrix(1 0 0 1 -442 -1473 )">
    <path d="M 469.5 1473  C 484.9 1473  497 1485.1  497 1500.5  C 497 1515.9  484.9 1528  469.5 1528  C 454.1 1528  442 1515.9  442 1500.5  C 442 1485.1  454.1 1473  469.5 1473  Z " fill-rule="nonzero" fill="#ffffff" stroke="none" />
    <path d="M 469.5 1473.5  C 484.62 1473.5  496.5 1485.38  496.5 1500.5  C 496.5 1515.62  484.62 1527.5  469.5 1527.5  C 454.38 1527.5  442.5 1515.62  442.5 1500.5  C 442.5 1485.38  454.38 1473.5  469.5 1473.5  Z " stroke-width="1" stroke="#d7d7d7" fill="none" />
  </g>
</svg>