<?xml version="1.0" encoding="utf-8"?>
<svg version="1.1" xmlns:xlink="http://www.w3.org/1999/xlink" width="12px" height="12px" viewBox="668 1398.5  12 12" xmlns="http://www.w3.org/2000/svg">
  <path d="M 674 1398.5  C 677.36 1398.5  680 1401.14  680 1404.5  C 680 1407.86  677.36 1410.5  674 1410.5  C 670.64 1410.5  668 1407.86  668 1404.5  C 668 1401.14  670.64 1398.5  674 1398.5  Z " fill-rule="nonzero" fill="#ffffff" stroke="none" />
  <path d="M 674 1399  C 677.08 1399  679.5 1401.42  679.5 1404.5  C 679.5 1407.58  677.08 1410  674 1410  C 670.92 1410  668.5 1407.58  668.5 1404.5  C 668.5 1401.42  670.92 1399  674 1399  Z " stroke-width="1" stroke="#797979" fill="none" />
  <path d="M 674 1407.5  C 672.32 1407.5  671 1406.18  671 1404.5  C 671 1402.82  672.32 1401.5  674 1401.5  C 675.68 1401.5  677 1402.82  677 1404.5  C 677 1406.18  675.68 1407.5  674 1407.5  " fill-rule="nonzero" fill="#797979" stroke="none" />
</svg>