<?xml version="1.0" encoding="utf-8"?>
<svg version="1.1" xmlns:xlink="http://www.w3.org/1999/xlink" width="12px" height="12px" viewBox="796 1398.5  12 12" xmlns="http://www.w3.org/2000/svg">
  <path d="M 802 1398.5  C 805.36 1398.5  808 1401.14  808 1404.5  C 808 1407.86  805.36 1410.5  802 1410.5  C 798.64 1410.5  796 1407.86  796 1404.5  C 796 1401.14  798.64 1398.5  802 1398.5  Z " fill-rule="nonzero" fill="#f0f0f0" stroke="none" />
  <path d="M 802 1399  C 805.08 1399  807.5 1401.42  807.5 1404.5  C 807.5 1407.58  805.08 1410  802 1410  C 798.92 1410  796.5 1407.58  796.5 1404.5  C 796.5 1401.42  798.92 1399  802 1399  Z " stroke-width="1" stroke="#797979" fill="none" />
  <path d="M 802 1407.5  C 800.32 1407.5  799 1406.18  799 1404.5  C 799 1402.82  800.32 1401.5  802 1401.5  C 803.68 1401.5  805 1402.82  805 1404.5  C 805 1406.18  803.68 1407.5  802 1407.5  " fill-rule="nonzero" fill="#797979" stroke="none" />
</svg>