<?xml version="1.0" encoding="utf-8"?>
<svg version="1.1" xmlns:xlink="http://www.w3.org/1999/xlink" width="21px" height="37px" xmlns="http://www.w3.org/2000/svg">
  <g transform="matrix(1 0 0 1 -399 -68 )">
    <path d="M 20.639175257732 2.22444889779559  C 20.8797250859107 2.47160988643954  21 2.75584502338009  21 3.07715430861724  C 21 3.39846359385437  20.8797250859107 3.68269873079492  20.639175257732 3.92985971943888  L 6.45876288659794 18.5  L 20.639175257732 33.0701402805611  C 20.8797250859107 33.3173012692051  21 33.6015364061456  21 33.9228456913828  C 21 34.2441549766199  20.8797250859107 34.5283901135604  20.639175257732 34.7755511022044  L 18.8350515463918 36.6292585170341  C 18.5945017182131 36.876419505678  18.3178694158076 37  18.0051546391753 37  C 17.692439862543 37  17.4158075601375 36.876419505678  17.1752577319588 36.6292585170341  L 0.360824742268041 19.3527054108216  C 0.120274914089347 19.1055444221777  0 18.8213092852371  0 18.5  C 0 18.1786907147629  0.120274914089347 17.8944555778223  0.360824742268041 17.6472945891784  L 17.1752577319588 0.370741482965932  C 17.4158075601375 0.123580494321976  17.692439862543 0  18.0051546391753 0  C 18.3178694158076 0  18.5945017182131 0.123580494321976  18.8350515463918 0.370741482965932  L 20.639175257732 2.22444889779559  Z " fill-rule="nonzero" fill="#000000" stroke="none" transform="matrix(1 0 0 1 399 68 )" />
  </g>
</svg>