<?xml version="1.0" encoding="utf-8"?>
<svg version="1.1" xmlns:xlink="http://www.w3.org/1999/xlink" width="12px" height="12px" viewBox="633 859.5  12 12" xmlns="http://www.w3.org/2000/svg">
  <path d="M 639 859.5  C 642.36 859.5  645 862.14  645 865.5  C 645 868.86  642.36 871.5  639 871.5  C 635.64 871.5  633 868.86  633 865.5  C 633 862.14  635.64 859.5  639 859.5  Z " fill-rule="nonzero" fill="#f0f0f0" stroke="none" />
  <path d="M 639 860  C 642.08 860  644.5 862.42  644.5 865.5  C 644.5 868.58  642.08 871  639 871  C 635.92 871  633.5 868.58  633.5 865.5  C 633.5 862.42  635.92 860  639 860  Z " stroke-width="1" stroke="#797979" fill="none" />
  <path d="M 639 868.5  C 637.32 868.5  636 867.18  636 865.5  C 636 863.82  637.32 862.5  639 862.5  C 640.68 862.5  642 863.82  642 865.5  C 642 867.18  640.68 868.5  639 868.5  " fill-rule="nonzero" fill="#797979" stroke="none" />
</svg>