<?xml version="1.0" encoding="utf-8"?>
<svg version="1.1" xmlns:xlink="http://www.w3.org/1999/xlink" width="12px" height="12px" viewBox="737 859.5  12 12" xmlns="http://www.w3.org/2000/svg">
  <path d="M 743 859.5  C 746.36 859.5  749 862.14  749 865.5  C 749 868.86  746.36 871.5  743 871.5  C 739.64 871.5  737 868.86  737 865.5  C 737 862.14  739.64 859.5  743 859.5  Z " fill-rule="nonzero" fill="#ffffff" stroke="none" />
  <path d="M 743 860  C 746.08 860  748.5 862.42  748.5 865.5  C 748.5 868.58  746.08 871  743 871  C 739.92 871  737.5 868.58  737.5 865.5  C 737.5 862.42  739.92 860  743 860  Z " stroke-width="1" stroke="#797979" fill="none" />
  <path d="M 743 868.5  C 741.32 868.5  740 867.18  740 865.5  C 740 863.82  741.32 862.5  743 862.5  C 744.68 862.5  746 863.82  746 865.5  C 746 867.18  744.68 868.5  743 868.5  " fill-rule="nonzero" fill="#797979" stroke="none" />
</svg>