<?xml version="1.0" encoding="utf-8"?>
<svg version="1.1" xmlns:xlink="http://www.w3.org/1999/xlink" width="12px" height="12px" viewBox="737 923.5  12 12" xmlns="http://www.w3.org/2000/svg">
  <path d="M 743 923.5  C 746.36 923.5  749 926.14  749 929.5  C 749 932.86  746.36 935.5  743 935.5  C 739.64 935.5  737 932.86  737 929.5  C 737 926.14  739.64 923.5  743 923.5  Z " fill-rule="nonzero" fill="#ffffff" stroke="none" />
  <path d="M 743 924  C 746.08 924  748.5 926.42  748.5 929.5  C 748.5 932.58  746.08 935  743 935  C 739.92 935  737.5 932.58  737.5 929.5  C 737.5 926.42  739.92 924  743 924  Z " stroke-width="1" stroke="#797979" fill="none" />
  <path d="M 743 932.5  C 741.32 932.5  740 931.18  740 929.5  C 740 927.82  741.32 926.5  743 926.5  C 744.68 926.5  746 927.82  746 929.5  C 746 931.18  744.68 932.5  743 932.5  " fill-rule="nonzero" fill="#797979" stroke="none" />
</svg>