<?xml version="1.0" encoding="utf-8"?>
<svg version="1.1" xmlns:xlink="http://www.w3.org/1999/xlink" width="12px" height="12px" viewBox="1404 848.5  12 12" xmlns="http://www.w3.org/2000/svg">
  <path d="M 1410 848.5  C 1413.36 848.5  1416 851.14  1416 854.5  C 1416 857.86  1413.36 860.5  1410 860.5  C 1406.64 860.5  1404 857.86  1404 854.5  C 1404 851.14  1406.64 848.5  1410 848.5  Z " fill-rule="nonzero" fill="#ffffff" stroke="none" />
  <path d="M 1410 849  C 1413.08 849  1415.5 851.42  1415.5 854.5  C 1415.5 857.58  1413.08 860  1410 860  C 1406.92 860  1404.5 857.58  1404.5 854.5  C 1404.5 851.42  1406.92 849  1410 849  Z " stroke-width="1" stroke="#797979" fill="none" />
  <path d="M 1410 857.5  C 1408.32 857.5  1407 856.18  1407 854.5  C 1407 852.82  1408.32 851.5  1410 851.5  C 1411.68 851.5  1413 852.82  1413 854.5  C 1413 856.18  1411.68 857.5  1410 857.5  " fill-rule="nonzero" fill="#797979" stroke="none" />
</svg>