<?xml version="1.0" encoding="utf-8"?>
<svg version="1.1" xmlns:xlink="http://www.w3.org/1999/xlink" width="12px" height="12px" viewBox="3879 883.5  12 12" xmlns="http://www.w3.org/2000/svg">
  <path d="M 3885 883.5  C 3888.36 883.5  3891 886.14  3891 889.5  C 3891 892.86  3888.36 895.5  3885 895.5  C 3881.64 895.5  3879 892.86  3879 889.5  C 3879 886.14  3881.64 883.5  3885 883.5  Z " fill-rule="nonzero" fill="#f0f0f0" stroke="none" />
  <path d="M 3885 884  C 3888.08 884  3890.5 886.42  3890.5 889.5  C 3890.5 892.58  3888.08 895  3885 895  C 3881.92 895  3879.5 892.58  3879.5 889.5  C 3879.5 886.42  3881.92 884  3885 884  Z " stroke-width="1" stroke="#797979" fill="none" />
  <path d="M 3885 892.5  C 3883.32 892.5  3882 891.18  3882 889.5  C 3882 887.82  3883.32 886.5  3885 886.5  C 3886.68 886.5  3888 887.82  3888 889.5  C 3888 891.18  3886.68 892.5  3885 892.5  " fill-rule="nonzero" fill="#797979" stroke="none" />
</svg>