<?xml version="1.0" encoding="utf-8"?>
<svg version="1.1" xmlns:xlink="http://www.w3.org/1999/xlink" width="12px" height="12px" viewBox="633 923.5  12 12" xmlns="http://www.w3.org/2000/svg">
  <path d="M 639 923.5  C 642.36 923.5  645 926.14  645 929.5  C 645 932.86  642.36 935.5  639 935.5  C 635.64 935.5  633 932.86  633 929.5  C 633 926.14  635.64 923.5  639 923.5  Z " fill-rule="nonzero" fill="#f0f0f0" stroke="none" />
  <path d="M 639 924  C 642.08 924  644.5 926.42  644.5 929.5  C 644.5 932.58  642.08 935  639 935  C 635.92 935  633.5 932.58  633.5 929.5  C 633.5 926.42  635.92 924  639 924  Z " stroke-width="1" stroke="#797979" fill="none" />
  <path d="M 639 932.5  C 637.32 932.5  636 931.18  636 929.5  C 636 927.82  637.32 926.5  639 926.5  C 640.68 926.5  642 927.82  642 929.5  C 642 931.18  640.68 932.5  639 932.5  " fill-rule="nonzero" fill="#797979" stroke="none" />
</svg>