<?xml version="1.0" encoding="utf-8"?>
<svg version="1.1" xmlns:xlink="http://www.w3.org/1999/xlink" width="12px" height="12px" viewBox="1404 912.5  12 12" xmlns="http://www.w3.org/2000/svg">
  <path d="M 1410 912.5  C 1413.36 912.5  1416 915.14  1416 918.5  C 1416 921.86  1413.36 924.5  1410 924.5  C 1406.64 924.5  1404 921.86  1404 918.5  C 1404 915.14  1406.64 912.5  1410 912.5  Z " fill-rule="nonzero" fill="#f0f0f0" stroke="none" />
  <path d="M 1410 913  C 1413.08 913  1415.5 915.42  1415.5 918.5  C 1415.5 921.58  1413.08 924  1410 924  C 1406.92 924  1404.5 921.58  1404.5 918.5  C 1404.5 915.42  1406.92 913  1410 913  Z " stroke-width="1" stroke="#797979" fill="none" />
  <path d="M 1410 921.5  C 1408.32 921.5  1407 920.18  1407 918.5  C 1407 916.82  1408.32 915.5  1410 915.5  C 1411.68 915.5  1413 916.82  1413 918.5  C 1413 920.18  1411.68 921.5  1410 921.5  " fill-rule="nonzero" fill="#797979" stroke="none" />
</svg>