<?xml version="1.0" encoding="utf-8"?>
<svg version="1.1" xmlns:xlink="http://www.w3.org/1999/xlink" width="12px" height="12px" viewBox="3103 813.5  12 12" xmlns="http://www.w3.org/2000/svg">
  <path d="M 3109 813.5  C 3112.36 813.5  3115 816.14  3115 819.5  C 3115 822.86  3112.36 825.5  3109 825.5  C 3105.64 825.5  3103 822.86  3103 819.5  C 3103 816.14  3105.64 813.5  3109 813.5  Z " fill-rule="nonzero" fill="#ffffff" stroke="none" />
  <path d="M 3109 814  C 3112.08 814  3114.5 816.42  3114.5 819.5  C 3114.5 822.58  3112.08 825  3109 825  C 3105.92 825  3103.5 822.58  3103.5 819.5  C 3103.5 816.42  3105.92 814  3109 814  Z " stroke-width="1" stroke="#797979" fill="none" />
  <path d="M 3109 822.5  C 3107.32 822.5  3106 821.18  3106 819.5  C 3106 817.82  3107.32 816.5  3109 816.5  C 3110.68 816.5  3112 817.82  3112 819.5  C 3112 821.18  3110.68 822.5  3109 822.5  " fill-rule="nonzero" fill="#797979" stroke="none" />
</svg>