<?xml version="1.0" encoding="utf-8"?>
<svg version="1.1" xmlns:xlink="http://www.w3.org/1999/xlink" width="12px" height="12px" viewBox="4630 877.5  12 12" xmlns="http://www.w3.org/2000/svg">
  <path d="M 4636 877.5  C 4639.36 877.5  4642 880.14  4642 883.5  C 4642 886.86  4639.36 889.5  4636 889.5  C 4632.64 889.5  4630 886.86  4630 883.5  C 4630 880.14  4632.64 877.5  4636 877.5  Z " fill-rule="nonzero" fill="#ffffff" stroke="none" />
  <path d="M 4636 878  C 4639.08 878  4641.5 880.42  4641.5 883.5  C 4641.5 886.58  4639.08 889  4636 889  C 4632.92 889  4630.5 886.58  4630.5 883.5  C 4630.5 880.42  4632.92 878  4636 878  Z " stroke-width="1" stroke="#797979" fill="none" />
  <path d="M 4636 886.5  C 4634.32 886.5  4633 885.18  4633 883.5  C 4633 881.82  4634.32 880.5  4636 880.5  C 4637.68 880.5  4639 881.82  4639 883.5  C 4639 885.18  4637.68 886.5  4636 886.5  " fill-rule="nonzero" fill="#797979" stroke="none" />
</svg>