<?xml version="1.0" encoding="utf-8"?>
<svg version="1.1" xmlns:xlink="http://www.w3.org/1999/xlink" width="12px" height="12px" viewBox="4734 877.5  12 12" xmlns="http://www.w3.org/2000/svg">
  <path d="M 4740 877.5  C 4743.36 877.5  4746 880.14  4746 883.5  C 4746 886.86  4743.36 889.5  4740 889.5  C 4736.64 889.5  4734 886.86  4734 883.5  C 4734 880.14  4736.64 877.5  4740 877.5  Z " fill-rule="nonzero" fill="#f0f0f0" stroke="none" />
  <path d="M 4740 878  C 4743.08 878  4745.5 880.42  4745.5 883.5  C 4745.5 886.58  4743.08 889  4740 889  C 4736.92 889  4734.5 886.58  4734.5 883.5  C 4734.5 880.42  4736.92 878  4740 878  Z " stroke-width="1" stroke="#797979" fill="none" />
  <path d="M 4740 886.5  C 4738.32 886.5  4737 885.18  4737 883.5  C 4737 881.82  4738.32 880.5  4740 880.5  C 4741.68 880.5  4743 881.82  4743 883.5  C 4743 885.18  4741.68 886.5  4740 886.5  " fill-rule="nonzero" fill="#797979" stroke="none" />
</svg>